pedal_clip_forces.mot
version=1
nRows=246
nColumns=4
inDegrees=yes
endheader
time	PedalClip_calcn_r_Fx	PedalClip_calcn_r_Fy	PedalClip_calcn_r_Fz
0	21.6765725688154	-22.2811102499315	-0
0.00116067	22.2699742470639	-21.9988677006778	-0
0.00544975	22.8547349409218	-21.745387486587	-0
0.00973883	23.430834543968	-21.5206777485119	-0
0.01496907	23.9982490709342	-21.3247519414054	-0
0.01766175	24.5569499256935	-21.1576140294012	-0
0.02146975	25.1069030339922	-21.0192637356384	-0
0.02505156	25.6480678189157	-20.9096988587446	-0
0.02900552	26.1803946351468	-20.8289150121291	-0
0.03135108	26.7038200418452	-20.7769053079213	-0
0.03447295	27.21826998947	-20.7536599721664	-0
0.03714619	27.7236583399917	-20.7591658741265	-0
0.04064259	28.2198918519598	-20.7934059476515	-0
0.04254251	28.7068723401995	-20.8563584761328	-0
0.04501731	29.184503935445	-20.9479962037878	-0
0.04761018	29.6526862564392	-21.0682852238252	-0
0.05019663	30.1113024855796	-21.2171835769226	-0
0.05221833	30.5602291344277	-21.3946394712594	-0
0.05424003	30.9993572897802	-21.6005890182184	-0
0.05687784	31.4285996481759	-21.8349534308318	-0
0.05908745	31.8479210595531	-22.0976269891313	-0
0.06107074	32.2573521950483	-22.3884448675846	-0
0.06305403	32.6570210312168	-22.7072504666312	-0
0.06503732	33.0472058365097	-23.0541596215665	-0
0.06702062	33.4284226322826	-23.4306570428514	-0
0.06900391	33.799221230655	-23.8616431702916	-0
0.0709872	34.1581866351897	-24.3327874190182	-0
0.07267217	34.5054864650748	-24.840605010977	-0
0.07435713	34.8408967950619	-25.3737922245106	-0
0.07604209	35.1636519582204	-25.9307427735947	-0
0.07772706	35.4713802687651	-26.5114909984478	-0
0.07941202	35.7613802603146	-27.1137310828101	-0
0.08109698	36.0313021045778	-27.735871071939	-0
0.08278195	36.2811826329666	-28.3757884504156	-0
0.08446691	36.5128532099256	-29.0306641751464	-0
0.08597112	36.7294355395609	-29.6977318695715	-0
0.08747534	36.9327081432397	-30.374902261692	-0
0.08897955	37.1234875673622	-31.0608665425128	-0
0.09048376	37.3035312676	-31.7547094901531	-0
0.09198798	37.477462209202	-32.4554844904807	-0
0.09349219	37.648709764152	-33.1626204601918	-0
0.0949964	37.8204759866131	-33.8748129056503	-0
0.09650062	37.9922506859242	-34.5890508710231	-0
0.09773423	38.1626979297851	-35.3009701397781	-0
0.09896784	38.3304219713225	-36.006852447686	-0
0.10021699	38.4957676533076	-36.7059470481522	-0
0.10174614	38.6593738189409	-37.3969789237187	-0
0.10293447	38.8215726046894	-38.0802457427216	-0
0.1041228	38.9823660084876	-38.7562830424385	-0
0.10565766	39.1413282036914	-39.4264967377004	-0
0.10663179	39.2976840975733	-40.0906716852976	-0
0.10803029	39.4503859403095	-40.7478309249268	-0
0.10918361	39.5989465993659	-41.3971963659282	-0
0.11033693	39.7444226269457	-42.0386592078204	-0
0.11149025	39.8883554187876	-42.6726413607444	-0
0.11234143	40.0309736732669	-43.299842377005	-0
0.11354735	40.1720696892191	-43.92079646062	-0
0.11475328	40.3115462907569	-44.5359208141177	-0
0.11568434	40.4493226924903	-45.1456654657483	-0
0.11657694	40.5854007268715	-45.7506156508866	-0
0.11780438	40.7198023316325	-46.3513653390783	-0
0.11903181	40.8525805733128	-46.9485467645997	-0
0.12025925	40.9837839228696	-47.5426022246003	-0
0.12104028	41.1135033776084	-48.1340590168459	-0
0.12209547	41.2417780662685	-48.7232297009615	-0
0.12315067	41.3685170279	-49.3103300026729	-0
0.12420586	41.4935035844112	-49.8952654450847	-0
0.1249284	41.6163721474285	-50.4778984429459	-0
0.12604272	41.7367955259286	-51.0579548401235	-0
0.12715703	41.8545672165936	-51.6352233978399	-0
0.12781601	41.9695505984385	-52.209339254666	-0
0.12877029	42.0816985762694	-52.7800044660505	-0
0.12962856	42.1909839615783	-53.3468093552488	-0
0.13071101	42.2974061200658	-53.9094916358657	-0
0.13179345	42.4010528186721	-54.4679121152332	-0
0.13318865	42.502089581204	-55.0221352113474	-0
0.13375249	42.6007433113341	-55.572370180556	-0
0.13450728	42.6971880661278	-56.1186319552316	-0
0.13532531	42.7916487809681	-56.6610495598558	-0
0.13637342	42.8843649147658	-57.1999391340854	-0
0.13742154	42.9757068786261	-57.7357608166185	-0
0.13812908	43.0659803636633	-58.2687539893743	-0
0.13900788	43.1554542821711	-58.7990686243116	-0
0.13968333	43.2443102836839	-59.3267244829329	-0
0.14057516	43.3326663582859	-59.8516079854749	-0
0.14146699	43.4205358970814	-60.3734864427948	-0
0.14235882	43.5079132028349	-60.8922217624325	-0
0.14302331	43.5947979554788	-61.4078221603604	-0
0.1438583	43.6813624989986	-61.9206003152664	-0
0.14486263	43.7677227545889	-62.4308450861072	-0
0.14555386	43.8540209785432	-62.9389585650167	-0
0.14639286	43.9404493790949	-63.4454762586479	-0
0.14702645	44.0271511516719	-63.9508959863931	-0
0.14785179	44.1141834614168	-64.4555724426101	-0
0.14853835	44.2015893354126	-64.9598437571456	-0
0.14938702	44.2893484902211	-65.4639173327845	-0
0.15001317	44.3774185154702	-65.9678034593916	-0
0.1508056	44.4656855244982	-66.4712889420818	-0
0.15145042	44.5540334866795	-66.9740870592575	-0
0.15225848	44.6422643983447	-67.4758452759796	-0
0.15288775	44.7301760032986	-67.9763304836494	-0
0.15367462	44.8175380084817	-68.4754001272986	-0
0.15430091	44.9041348101933	-68.972874154999	-0
0.15508386	44.9897028389903	-69.4684492295406	-0
0.15570481	45.0740406557909	-69.9619344695935	-0
0.15647783	45.156965006857	-70.4532638659701	-0
0.15709377	45.2383975969715	-70.9425972490912	-0
0.15786026	45.3183435298809	-71.430202037583	-0
0.15847222	45.3969089040887	-71.9164128951383	-0
0.15923136	45.474251773575	-72.4015590464015	-0
0.15983899	45.5505632845146	-72.885987044281	-0
0.16059199	45.6259730759137	-73.3699529363458	-0
0.16119591	45.700529291998	-73.8535536843037	-0
0.16194251	45.7742269203939	-74.336748419021	-0
0.16254279	45.8471144555135	-74.8195956453828	-0
0.16328396	45.9192066514751	-75.3021607019732	-0
0.16388076	45.9905650556104	-75.78457694681	-0
0.16461614	46.0611919216147	-76.2668889829312	-0
0.1652098	46.1311209140478	-76.7491616902583	-0
0.16594041	46.2003517971602	-77.2314192567864	-0
0.16653083	46.2689373955025	-77.7137650350778	-0
0.16725611	46.3368801226268	-78.1962517055866	-0
0.16784381	46.4042238949568	-78.6789783464765	-0
0.16856495	46.4709672243516	-79.161980949673	-0
0.16914959	46.5371547824884	-79.6453490266583	-0
0.16986571	46.6027817471154	-80.1291171223716	-0
0.17044804	46.6678912843607	-80.6133872604435	-0
0.1711607	46.732480127564	-81.0981986777448	-0
0.17174005	46.7965911710198	-81.5836375527773	-0
0.17244779	46.8602135151855	-82.0697374907933	-0
0.17302533	46.9234103085126	-82.5566262780733	-0
0.17373044	46.9862220791951	-83.0442260126965	-0
0.1743049	47.0486215497246	-83.5323494626777	-0
0.17500485	47.1106030796558	-84.0210464355546	-0
0.1755782	47.1722048977548	-84.5105382319833	-0
0.17627676	47.2333861471943	-85.0009696418774	-0
0.17684657	47.2941679635259	-85.4924787497416	-0
0.17753905	47.3545126724903	-85.9846720587322	-0
0.17810895	47.4144073935691	-86.4770199755374	-0
0.17880219	47.4738153630433	-86.9691712433188	-0
0.1793673	47.5328016966246	-87.4612625439812	-0
0.18005218	47.5914720324462	-87.9538779414888	-0
0.18061976	47.6499784079536	-88.4479847706797	-0
0.18130957	47.7084590293818	-88.9447551474062	-0
0.18186942	47.7670205940673	-89.4454641368932	-0
0.18254556	47.8257612961989	-89.951411081383	-0
0.18311301	47.8847694297492	-90.4636081789581	-0
0.18380305	47.9441302486925	-90.9828646066893	-0
0.18435605	48.0039214349281	-91.509925425464	-0
0.1850204	48.0642260228786	-92.0455818801116	-0
0.18559288	48.1251237853514	-92.5905003661545	-0
0.18629146	48.1867081008788	-93.1452619142726	-0
0.18683493	48.2490690698969	-93.710413332791	-0
0.1873784	48.3123329689152	-94.2866729003961	-0
0.18845385	48.3766699039848	-94.8747788677213	-0
0.18893108	48.4421335982202	-95.4751372006489	-0
0.18940831	48.5088094510202	-96.0877954957641	-0
0.19005676	48.5766637054209	-96.7120385183473	-0
0.19066344	48.6457041629115	-97.346945258523	-0
0.19127012	48.7158522807207	-97.9914518533794	-0
0.19240401	48.7870527484868	-98.6450731372121	-0
0.1935379	48.8592743121537	-99.3076113363627	-0
0.1941323	48.9324700547551	-99.9788228501575	-0
0.19489917	49.0064672493027	-100.657931042902	-0
0.19566604	49.081076571421	-101.343685577865	-0
0.196461	49.1561074935817	-102.034552394449	-0
0.19714001	49.2314512965522	-102.729139351997	-0
0.19772069	49.3069815176048	-103.426360129429	-0
0.19830138	49.3826023831745	-104.125407845049	-0
0.19939508	49.4582110466377	-104.825615912539	-0
0.19997107	49.5337513493785	-105.52643504071	-0
0.20058209	49.6091626674511	-106.22735136444	-0
0.20119311	49.6844419614285	-106.927983455673	-0
0.20200522	49.7596030052655	-107.628130844925	-0
0.20281734	49.8347664140674	-108.328011130033	-0
0.20332851	49.9101057111071	-109.02830376827	-0
0.20383968	49.9859244724642	-109.730351427345	-0
0.2045291	50.0625703744542	-110.436031725914	-0
0.20512102	50.1404747696117	-111.147734849427	-0
0.20571294	50.2200184264426	-111.868068913469	-0
0.20667634	50.3015806334175	-112.599598291839	-0
0.20763975	50.3856042484517	-113.344542373323	-0
0.20815163	50.4723424242985	-114.104575051462	-0
0.20866351	50.561982069336	-114.881198602637	-0
0.2089561	50.654743980707	-115.6759254325	-0
0.20981016	50.7508672818774	-116.490899495608	-0
0.21066422	50.8507299005075	-117.328076865534	-0
0.21140548	50.9545859252088	-118.188953734867	-0
0.21214675	51.062552297686	-119.074536212888	-0
0.21288801	51.1745463798755	-119.985217082276	-0
0.21344271	51.2903310955071	-120.92100352006	-0
0.21425896	51.4096177596551	-121.881750121107	-0
0.21507521	51.5321828757733	-122.867224000421	-0
0.21589146	51.6580185280257	-123.87732899221	-0
0.21670772	51.7872248988831	-124.912069620231	-0
0.21752397	51.9200769603511	-125.971850447672	-0
0.21834022	52.0569838724618	-127.057179066098	-0
0.21915647	52.1985770097923	-128.168853048188	-0
0.21997272	52.3455360858106	-129.307855377702	-0
0.22078897	52.4987333269381	-130.475721315111	-0
0.22160522	52.6590769529342	-131.674264193605	-0
0.22242147	52.8276231464215	-132.905507687466	-0
0.22323773	53.0051038764872	-134.171058678533	-0
0.22405398	53.1919890270534	-135.472127852615	-0
0.22487023	53.3887490629288	-136.809684405801	-0
0.22568648	53.5957720759973	-138.184716545604	-0
0.22650273	53.8138278976923	-139.599095219028	-0
0.22731898	54.0436570735419	-141.055621512454	-0
0.22813523	54.286515805529	-142.557582701378	-0
0.22895148	54.5432974997625	-144.107026428881	-0
0.22976774	54.8145057748019	-145.705390743191	-0
0.23058399	55.1005528204612	-147.353916785015	-0
0.23140024	55.4018430370652	-149.053787680719	-0
0.23221649	55.7187771842475	-150.806270222923	-0
0.23303274	56.0517510860245	-152.612723989746	-0
0.23384899	56.4011540783755	-154.474578996455	-0
0.23466524	56.7673565953234	-156.393316345232	-0
0.23548149	57.1506950738774	-158.370084030974	-0
0.23629775	57.5513791632904	-160.404369046616	-0
0.237114	57.9692048687383	-162.492997279702	-0
0.23793025	58.4031870044365	-164.635760486488	-0
0.2387465	58.8530043637332	-166.843113118651	-0
0.23956275	59.3193262570165	-169.125026192251	-0
0.240379	59.8060869886722	-171.482719444226	-0
0.24119525	60.3161979742285	-173.912899239838	-0
0.2420115	60.848800232067	-176.414043731615	-0
0.24282776	61.4019530170591	-178.985648942387	-0
0.24364401	61.9742652057168	-181.626241212713	-0
0.24446026	62.5650212459751	-184.332814475508	-0
0.24527651	63.1740852413558	-187.10147167906	-0
0.24582094	63.8017524769388	-189.927796276367	-0
0.24650129	64.4486360383663	-192.806551464497	-0
0.24712584	65.1154386460245	-195.733941232784	-0
0.2477504	65.8027457780746	-198.712934361295	-0
0.24860164	66.5109609146219	-201.751186914941	-0
0.24945288	67.2404492048318	-204.859021259098	-0
0.24999985	67.991862125742	-208.04954554942	-0
0.25054681	68.7660860736518	-211.338474602054	-0
0.25169584	69.5641631872809	-214.743390246634	-0
0.25251753	70.3650504384655	-218.282421236132	-0
0.25351979	71.097899051714	-221.972602163067	-0
0.25439348	71.8515651869085	-225.828088893743	-0
0.25526716	72.7545551442089	-229.858688391221	-0
0.25601241	73.7906840353575	-234.069161767943	-0
0.25675765	74.912685837908	-238.459362388878	-0
0.25815876	76.1002282343344	-243.025233435066	-0
